# xmcd
#
# Track frame offsets:
#	150
#	10722
#	21172
#	32842
#	43225
#	54877
#	65775
#	74000
#	83510
#	95422
#	105995
#	118247
#	130707
#	142742
#	153957
#	164315
#	176942
#	193022
#
# Disc length: 2710
#
# Revision: 1
# Processed by: cddbd v1.5.1PL0 Copyright (c) Steve Scherf et al.
# Submitted via: CDex 1.40Beta8
# Normalized: r0:TDELIM( - )
#
DISCID=ef0a9412
DTITLE=Various Artist - The Best Of Country Music Vol 2
DYEAR=1900
DGENRE=Country
TTITLE0=Dave Dudley - Seven Lonely Days
TTITLE1=Johnny Cash - There You Go
TTITLE2=George Jones - Heartaches By The Number
TTITLE3=Jerry Lee Lewis - I Love You So Much It Hurts
TTITLE4=Johnny Cash - Thanks Alot
TTITLE5=Hank Locklin - Born To Ramble
TTITLE6=Roger Miller - Dang Me
TTITLE7=Jerry Wallace - In A Cotton Candy World
TTITLE8=T Texas Tyler - Remember Me
TTITLE9=Frank Tilman - I Can´t Help It (if I´m Still In Love With You)
TTITLE10=Jimmy Dean - Picklin´ Sweethearts
TTITLE11=Johnny Cash - Folsom Prison Blues
TTITLE12=Wynn Stewart - Wishfull Thinking
TTITLE13=Carlisles, The - No Help Wanted
TTITLE14=Roy Orbison - Domino
TTITLE15=Merle Kilgore - 42 In Chicago
TTITLE16=Jeannie C Riley - The Cotton Patch
TTITLE17=Conway Twitty - Born To Sing The Blues
EXTD=ID3G: 2
EXTT0=
EXTT1=
EXTT2=
EXTT3=
EXTT4=
EXTT5=
EXTT6=
EXTT7=
EXTT8=
EXTT9=
EXTT10=
EXTT11=
EXTT12=
EXTT13=
EXTT14=
EXTT15=
EXTT16=
EXTT17=
PLAYORDER=
